<svg xmlns="http://www.w3.org/2000/svg" viewBox="0 0 189.14 208.8"><defs><style>.cls-1{fill:#231f20;}</style></defs><g id="Layer_2" data-name="Layer 2"><g id="Layer_1-2" data-name="Layer 1"><path class="cls-1" d="M189.13,104.21c.18-7.38-5.15-14.45-12.45-18.33a15.6,15.6,0,0,0,7.92-5.37c1.14-1.5,2.45-2.67.31-4.11a4.33,4.33,0,0,0-2.08-.78c-1.16-.18-1.84,0-2.06,1.14a14.7,14.7,0,0,1-7,7.64l-.11-.05a17.77,17.77,0,0,0,2.08-7.16c-.43-1.24-2.39-1.78-3.65-1.68a6.74,6.74,0,0,0-2.4.8c-1.56.88-.35,3.12-.93,4.61a12.23,12.23,0,0,1-2.21,5.31c-1.4,1-3,2.06-3.47,1,.86-2.4.16-5.07-1-7.23-.93-.63-2.37.12-2.93,1-1.24,1.92,3.54,4.24.43,7.93-5.39-4.05-12.44-5.11-19.1-4.76l28.37-16.38c9.8,6.38,22.23-5.43,16.12-15.61a11.57,11.57,0,0,0-21.58,6.15L135.1,74.66c3.6-5.57,6.17-12.17,5.37-18.83,4.77-.83,4.35,4.45,6.64,4.35,1-.06,2.41-.93,2.32-2.06C148.08,56,146,54,143.35,53.61c-.38-3.37,6.47-2.7,8.62-1.7,1.59.24,2.92,2.41,4.47,1.5a6.69,6.69,0,0,0,1.89-1.68c.72-1,1.23-3,.37-4A17.82,17.82,0,0,0,151.3,46a14.56,14.56,0,0,1,10.3-2.38c1.09.37,1.61-.13,2-1.22a4.25,4.25,0,0,0,.36-2.19c-.18-2.58-1.83-2-3.71-1.79a15.54,15.54,0,0,0-8.84,4.4c.39-8.31-3.06-16.73-9.64-20.3h0l-.1-.06h0c-6.3-3.84-15.09-2.76-22.1,1.62a15.48,15.48,0,0,0-.7-9.55c-.72-1.74-1.07-3.45-3.4-2.32a4.33,4.33,0,0,0-1.71,1.41c-.74.91-.92,1.59,0,2.36a14.62,14.62,0,0,1,3.11,9.91l-.1.07a18.06,18.06,0,0,0-5.16-5.39c-1.29-.25-2.73,1.18-3.28,2.32a6.79,6.79,0,0,0-.51,2.48c0,1.8,2.53,1.86,3.53,3.12,2,1.29,5.73,7,2.75,8.21-1.63-2-4.37-2.81-6.86-2.9-1,.49-1.08,2.11-.62,3,1,2,5.44-1,7.09,3.59C107.48,43,103,48.59,100,54.53V21.77C110.47,16.58,106.27-.35,94.54,0,82.69-.23,78.65,16.49,89.08,21.77V54.43c-3-5.9-7.45-11.43-13.62-14.06,1.67-4.55,6-1.55,7.08-3.59.47-.92.4-2.55-.61-3-2.56.09-5.4.91-7,3.07-2.64-1.49.79-7,2.89-8.38,1-1.26,3.54-1.32,3.53-3.12a7,7,0,0,0-.51-2.48c-.54-1.14-2-2.57-3.28-2.32A17.83,17.83,0,0,0,72.32,26a14.55,14.55,0,0,1,3.09-10.11c.86-.76.69-1.45,0-2.36a4.38,4.38,0,0,0-1.72-1.41c-2.32-1.13-2.67.58-3.4,2.32a15.52,15.52,0,0,0-.61,9.86c-7-4.49-16-5.72-22.4-1.81h0l-.11.06h0c-6.47,3.53-9.93,11.69-9.64,19.94a15.57,15.57,0,0,0-8.61-4.17c-1.87-.24-3.54-.79-3.71,1.79a4.25,4.25,0,0,0,.36,2.19c.42,1.09.92,1.59,2,1.22a14.62,14.62,0,0,1,10.14,2.26V46a17.88,17.88,0,0,0-7.24,1.78c-.87,1-.35,3,.37,4a6.69,6.69,0,0,0,1.89,1.68c1.55.91,2.88-1.26,4.46-1.5,2.2-1.15,8.74-1.34,8.7,1.69-2.67.3-4.79,2.36-6.15,4.52-.09,1.13,1.28,2,2.32,2.05,2.28.12,1.89-5.18,6.64-4.34-.81,6.69,1.8,13.34,5.43,18.92L25.74,58.38C26.32,46.6,9.86,41.89,4.15,52.22c-6.09,10.11,6.22,22,16.12,15.62L48.55,84.17c-6.62-.34-13.62.74-19,4.76-3.1-3.72,1.68-6,.44-7.93-.56-.86-2-1.62-2.93-1-1.23,2.32-2,5.31-.74,7.8-2.75,1.19-5.78-4.29-5.92-6.89-.59-1.5.63-3.74-.93-4.62a6.72,6.72,0,0,0-2.41-.8c-1.25-.1-3.22.44-3.64,1.68a18,18,0,0,0,2.15,7.3,14.68,14.68,0,0,1-7.21-7.73c-.22-1.13-.91-1.33-2.06-1.14a4.33,4.33,0,0,0-2.08.78c-2.14,1.44-.84,2.61.31,4.11A15.49,15.49,0,0,0,12.77,86C5.38,89.78-.19,97,0,104.46H0v.13H0C-.17,112,5.16,119,12.46,122.91a15.51,15.51,0,0,0-7.92,5.38c-1.15,1.49-2.46,2.66-.31,4.1a4.33,4.33,0,0,0,2.08.78c1.15.19,1.83,0,2.06-1.14a14.66,14.66,0,0,1,7-7.64l.11,0c-.85,2.17-3.79,7.3-.63,8.5a4.66,4.66,0,0,0,2.76.22,5.34,5.34,0,0,0,1.84-.68c1.56-.88.34-3.12.93-4.61.09-2.69,3.16-7.58,5.85-6.75-1.12,2.47-.4,5.37.81,7.65.92.64,2.36-.12,2.93-1,1.24-1.92-3.54-4.23-.44-7.93,5.39,4,12.45,5.11,19.1,4.76L20.29,141c-9.79-6.37-22.22,5.43-16.11,15.61,5.76,10.39,22.2,5.52,21.58-6.15L54,134.13c-3.6,5.57-6.17,12.17-5.37,18.83-4.77.83-4.35-4.45-6.64-4.34-1,0-2.41.93-2.32,2,1.41,2.24,3.68,4.41,6.48,4.54,0,3.19-6.76,2.75-9,1.67-1.59-.24-2.91-2.41-4.46-1.49a6.54,6.54,0,0,0-1.89,1.68c-.72,1-1.24,3-.37,4a17.9,17.9,0,0,0,7.39,1.79,14.64,14.64,0,0,1-10.3,2.38c-1.09-.37-1.6.12-2,1.21a4.25,4.25,0,0,0-.36,2.19c.17,2.58,1.83,2,3.71,1.79a15.48,15.48,0,0,0,8.84-4.4c-.4,8.31,3.06,16.74,9.64,20.3h0l.11.06h0c6.3,3.83,15.09,2.76,22.1-1.63a15.56,15.56,0,0,0,.69,9.55c.73,1.74,1.08,3.46,3.4,2.32a4.22,4.22,0,0,0,1.72-1.41c.74-.91.91-1.59,0-2.36A14.61,14.61,0,0,1,72.3,183l.1-.07c1.45,1.82,4.42,6.92,7,4.79A4.62,4.62,0,0,0,81,185.4a5.48,5.48,0,0,0,.33-1.93c0-1.79-2.53-1.86-3.53-3.12-2.34-1.41-4.69-6.34-2.83-8.3,1.62,2.11,4.41,2.9,6.94,3,1-.48,1.08-2.11.61-3-1-2-5.43,1-7.08-3.59,6.2-2.64,10.65-8.22,13.67-14.16V187A11.62,11.62,0,0,0,83,197.22h0c-.23,8.69,10,14.52,17.34,10,7.73-4,7.54-16.49-.3-20.22V154.36c3,5.9,7.45,11.43,13.62,14.07-1.67,4.54-6,1.54-7.09,3.58-.46.92-.39,2.55.62,3,2.63-.1,5.61-1,7.14-3.29,3.19,1.39-1.16,7.23-3,8.6-1,1.26-3.54,1.33-3.53,3.12a6.79,6.79,0,0,0,.51,2.48c.54,1.14,2,2.57,3.28,2.32a17.72,17.72,0,0,0,5.24-5.52,14.55,14.55,0,0,1-3.09,10.11c-.86.77-.69,1.45,0,2.36a4.25,4.25,0,0,0,1.71,1.41c2.33,1.13,2.68-.58,3.4-2.32a15.45,15.45,0,0,0,.62-9.86c7,4.5,16,5.72,22.4,1.81h0l.11-.06h0c6.47-3.54,9.93-11.69,9.64-19.95a15.54,15.54,0,0,0,8.61,4.17c1.87.24,3.54.79,3.71-1.79a4.27,4.27,0,0,0-.36-2.19c-.42-1.09-.92-1.58-2-1.21A14.66,14.66,0,0,1,151.47,163v-.12c2.3-.34,8.21-.37,7.67-3.7a4.56,4.56,0,0,0-1.18-2.5,5,5,0,0,0-1.51-1.25c-1.55-.92-2.88,1.25-4.47,1.49a12.36,12.36,0,0,1-5.05.8c-1.59-.62-3.74-1.64-3.35-2.53,2.55-.43,4.55-2.39,5.86-4.48.09-1.12-1.29-2-2.32-2-2.28-.12-1.89,5.18-6.64,4.34.8-6.69-1.8-13.34-5.43-18.92l28.37,16.38c-.64,11.71,15.89,16.49,21.58,6.15,6.11-10.18-6.32-22-16.12-15.61l-28.28-16.33c6.62.33,13.62-.74,19-4.77,3.1,3.72-1.68,6-.44,7.93.56.86,2,1.62,2.93,1,1.21-2.29,1.94-5.22.79-7.69,2.94-2,5.53,4.39,5.87,6.79.58,1.49-.63,3.73.93,4.61a6.74,6.74,0,0,0,2.4.8c1.26.1,3.23-.44,3.65-1.68a17.88,17.88,0,0,0-2.16-7.3,14.66,14.66,0,0,1,7.22,7.73c.22,1.13.91,1.33,2.06,1.14a4.33,4.33,0,0,0,2.08-.78c2.14-1.44.84-2.61-.31-4.1a15.44,15.44,0,0,0-8.23-5.46c7.41-3.84,12.95-11,12.76-18.5h0a.48.48,0,0,1,0-.12Zm-16.34-50c4.79-2.85,9.17,4.73,4.3,7.45S167.93,57,172.79,54.24ZM17.89,60.16c-2.71,4.87-10.31.48-7.44-4.3C13.14,51,20.76,55.35,17.89,60.16Zm-1.54,94.39c-4.79,2.85-9.17-4.72-4.3-7.44S21.21,151.83,16.35,154.55Zm154.9-5.91c2.72-4.87,10.29-.5,7.44,4.29S168.39,153.42,171.25,148.64Zm-16.2-56c5.11,3.2,7,6.65,7.68,8.94H152c-4-12.11-24.83-5.81-38.07-2l12.14-7C132.45,90.52,146.44,87.2,155.05,92.59ZM63.59,152.88l-5.38,9.32c-1.65-1.67-3.88-5.08-4.11-11.33-.36-10,9.3-20.38,14.25-25l13-7.53C71.65,127.86,55,143.38,63.59,152.88Zm4.12-11.69c3.28-6.42,11.37-14,16.69-19l.23-.22-.12.55c-1.69,7.48-4.05,18-7.94,23.81a6.51,6.51,0,0,0-8.86-5.13ZM75.94,62.5c3.92,6,6.45,16.85,8.12,24l.07.31-.41-.38c-5.64-5.2-13.53-12.49-16.66-18.78a6.51,6.51,0,0,0,8.88-5.1Zm4.72,27.58-12.15-7c-6.29-6-14.5-15.15-14.41-25.15.23-6.42,2.55-9.81,4.22-11.45l5.37,9.3C54.55,65.3,70.65,80.4,80.66,90.08Zm-29.07,14.5a6.5,6.5,0,0,0-2.48-5.11c7.2-.38,17.82,2.83,24.8,4.94l.31.1-.54.16c-7.32,2.28-17.58,5.48-24.59,5A6.52,6.52,0,0,0,51.59,104.58Zm35.63,4.06c-5.42-9.76,9-18,14.7-8.49C107.33,109.91,93,118.21,87.22,108.64Zm50.27-4.79A6.53,6.53,0,0,0,140,109c-7.2.37-17.82-2.84-24.8-5l-.31-.09.54-.17c7.33-2.28,17.58-5.47,24.59-5A6.52,6.52,0,0,0,137.49,103.85Zm-16.12-36.6c-3.28,6.42-11.36,14-16.68,19l-.24.21c0-.18.08-.36.13-.54,1.69-7.49,4-18,7.93-23.82a6.53,6.53,0,0,0,8.86,5.14Zm-8.22,78.69c-3.93-6.05-6.46-16.85-8.13-24l-.07-.31.42.38c5.63,5.21,13.53,12.49,16.65,18.78a6.51,6.51,0,0,0-8.87,5.11Zm-5.4-55.49c9.8-9.59,26.61-25.26,17.6-34.74l5.37-9.3C141.6,57,129.52,76,120.78,82.92Zm.73,28.26,12.15,7c6.28,6,14.5,15.16,14.4,25.15-.22,6.14-2.34,9.51-4,11.23l-5.37-9.31C134.34,143.25,118.41,128.32,108.48,118.71ZM140,30.38l1.53-2.65c4.43,3.74,6.82,10.38,5.33,18.77a16,16,0,0,0-7.29,4.44,19.56,19.56,0,0,0-3.93-7.45C141.72,42.54,143.87,34.56,140,30.38Zm-21.48-.44c6.51-5.39,13.29-6.6,18.64-4.71l-1.57,2.71c-5.5-1-11.13,4.76-8.89,10.44a19.49,19.49,0,0,0-8.31.33A16.84,16.84,0,0,0,119,34.8,14.89,14.89,0,0,0,118.5,29.94ZM100,71.16c2.18-12.42,11.92-30.5,26.29-27.16L121,53.27C108.34,50.5,103.36,71.78,100,85.19ZM98.84,11.58c.09,5.56-8.68,5.58-8.59,0C90.16,6,98.92,6,98.84,11.58ZM86.55,62.48c3.23,6.26,2.54,17,2.53,23.52-3.37-13.18-8.49-35.34-21-32.68L62.7,44C72.84,41.14,83.67,52.23,86.55,62.48Zm-37-11.54a15.84,15.84,0,0,0-7.52-4.5c-.59-4.5-.85-13.65,5.37-18.83l1.63,2.82c-3.93,4.19-1.76,12.24,4.39,13.15A19.53,19.53,0,0,0,49.58,50.94ZM53.47,28l-1.65-2.85c7.57-2.52,15.27,2.35,18.74,5a15.93,15.93,0,0,0,.21,8.53,19.66,19.66,0,0,0-8.42-.32C64.54,32.73,58.94,27,53.47,28ZM34.09,92.59c8.57-5,20.43-2.58,28.76-.17L75.9,100c-13.06-3.65-34.7-10.28-38.76,1.71H26.37C27,99.39,28.9,95.84,34.09,92.59Zm-16,28.31c-8.13-3-12.58-8.48-13.47-14.21H7.92c1.6,4.9,7.32,8.58,13.42,2.91a19.58,19.58,0,0,0,4.44,7A15.72,15.72,0,0,0,18.12,120.9ZM21.3,99.3a7.85,7.85,0,0,0-6-2.73c-4.34.51-6.66,2.59-7.5,5.09H4.79C6,96.11,10.48,90.91,18.3,88.08a16,16,0,0,0,7.48,4.09A19.56,19.56,0,0,0,21.3,99.3Zm12.79,16.9c-5.55-3.47-7.3-7.26-7.84-9.51H37c3.57,12.86,24.8,6.44,38.24,2.6l-12.14,7C56.69,118.27,42.7,121.6,34.09,116.2ZM49,178.2l-1.54,2.68c-4.3-3.76-6.6-10.33-5.13-18.59a16,16,0,0,0,7.29-4.44,19.42,19.42,0,0,0,3.93,7.45C47.51,166.23,45.35,174,49,178.2Zm21.66.65c-6.61,5.48-13.5,6.64-18.89,4.62l1.55-2.67c5.58,1.29,11.45-4.61,9.17-10.38a19.51,19.51,0,0,0,8.31-.34A16.93,16.93,0,0,0,70.1,174,14.88,14.88,0,0,0,70.63,178.85Zm18.5-41.21c-2.2,12.5-12,30.71-26.56,27.08l5.36-9.28c13.09,3,17.76-18.47,21.2-31.84Zm1.17,59.58c-.09-5.57,8.67-5.59,8.59,0C99,202.79,90.22,202.79,90.3,197.22Zm12.29-50.9c-3.24-6.27-2.54-17-2.53-23.53,3.4,13.29,8.57,35.69,21.3,32.6l5.38,9.32C116.51,167.86,105.5,156.66,102.59,146.32Zm37,11.53a15.87,15.87,0,0,0,7.53,4.5c.58,4.45.83,13.42-5.14,18.63l-1.65-2.86c3.64-4.25,1.43-12-4.6-12.9A19.52,19.52,0,0,0,139.55,157.85ZM136,180.72l1.63,2.82c-7.66,2.75-15.52-2.21-19-4.93a16,16,0,0,0-.21-8.53,19.5,19.5,0,0,0,8.42.32C124.55,176.16,130.41,182,136,180.72Zm19.07-64.52c-8.56,5.06-20.44,2.58-28.77.17l-13-7.53c13.19,3.58,35,10.65,38.91-2.28h10.77C162.42,108.79,160.72,112.65,155.05,116.2Zm16-28.31c7.86,2.91,12.28,8.11,13.36,13.64H181c-1.84-4.6-7.36-7.79-13.21-2.34a19.55,19.55,0,0,0-4.44-7A15.82,15.82,0,0,0,171,87.89Zm-.18,32.82a15.92,15.92,0,0,0-7.49-4.08,19.69,19.69,0,0,0,4.49-7.13,7.88,7.88,0,0,0,5.95,2.72c4.66-.54,7-2.91,7.65-5.66h3C183.48,112.33,178.92,117.79,170.84,120.71Z"/></g></g></svg>