<svg xmlns="http://www.w3.org/2000/svg" viewBox="0 0 193.29 208.8"><defs><style>.cls-1{fill:#231f20;}</style></defs><g id="Layer_2" data-name="Layer 2"><g id="Layer_1-2" data-name="Layer 1"><path class="cls-1" d="M193.28,132c-.16-4-6.19-4.14-12.94-.72-5.69,2.87-11.81,10-11.81,10-1.05-3.45-5-3.32-5-3.32,12.21-4.23,15.21-12.16,14.43-16.71s-5.75-5.39-5.75-5.39c2.91-5.62-4.19-10-4.19-10,3.4.46,6.58,5.1,11,5.22s5.75-4.6,5.75-4.6c3.28,1.77,3.91-.9,3.89-2.1s-.74-3.87-4-2.1c0,0-1.33-4.73-5.76-4.61s-7.6,4.76-11,5.23c0,0,7.1-4.35,4.19-10,0,0,5-.83,5.75-5.38s-2.22-12.48-14.43-16.71c0,0,4,.12,5-3.32,0,0,6.12,7.09,11.81,10,6.75,3.41,12.78,3.27,12.95-.73s-6.06-2-10.15-3.27a31.61,31.61,0,0,1-8.44-4.38s7.26,2,10.86,0c2.89-1.61,3.09-3.79,2.53-4.56s-2-1.25-6.21.69-5,1.19-5,1.19a22.88,22.88,0,0,0,6.1-6.28,68.83,68.83,0,0,0,4.2-7.94,57,57,0,0,0-8.92-.45,22.8,22.8,0,0,0-8.48,2.15s-.25-1.07,3.52-3.73,4.09-4.18,3.7-5-2.37-1.78-5.21-.09c-3.55,2.12-5.46,9.39-5.46,9.39a31.56,31.56,0,0,1,.43-9.5c.91-4.19,5.82-8.54,2.24-10.42s-6.69,3.3-7.1,10.85c-.36,6.37,2.73,15.21,2.73,15.21-3.51-.81-5.39,2.69-5.39,2.69,2.44-12.69-2.92-19.25-7.26-20.85s-7.54,2.29-7.54,2.29c-3.41-5.33-10.72-1.36-10.72-1.36,2.11-2.71,7.71-3.14,10-6.91s-1.11-7.29-1.11-7.29c3.17-1.95,1.19-3.68.29-4.31s-3.89-1.4-4,2.32c0,0-4.75-1.21-6.86,2.68s.32,9-1,12.15c0,0-.21-8.33-6.53-8.61,0,0,1.76-4.73-1.79-7.68S110.73,21.37,101,29.83c0,0,2.09-3.37-.36-6,0,0,9.2-1.75,14.54-5.23C121.47,14.45,124.36,9.15,121,7s-4.73,4.26-7.9,7.15a31.94,31.94,0,0,1-8,5.12s5.35-5.29,5.41-9.43c0-3.3-1.75-4.56-2.68-4.46s-2.1,1.13-2.52,5.72S103.81,16,103.81,16a22.74,22.74,0,0,0-2.39-8.43A67.8,67.8,0,0,0,96.64,0a57.44,57.44,0,0,0-4.85,7.49,22.84,22.84,0,0,0-2.38,8.43S88.37,15.6,88,11s-1.58-5.63-2.52-5.72-2.72,1.16-2.68,4.46c.06,4.14,5.4,9.43,5.4,9.43a32,32,0,0,1-8-5.12C77,11.16,75.65,4.74,72.23,6.9s-.48,7.44,5.85,11.58c5.34,3.48,14.54,5.23,14.54,5.23-2.45,2.64-.36,6-.36,6-9.77-8.46-18.14-7.09-21.69-4.14s-1.79,7.68-1.79,7.68c-6.32.29-6.54,8.61-6.54,8.61-1.29-3.18,1.14-8.25-1-12.15S54.41,27,54.41,27c-.11-3.72-3-2.7-3.9-2.19s-2.85,2.45.32,4.41c0,0-3.43,3.51-1.11,7.28s7.92,4.21,10,6.92c0,0-7.31-4-10.73,1.35,0,0-3.2-3.88-7.54-2.29s-9.7,8.17-7.25,20.86c0,0-1.88-3.5-5.39-2.69,0,0,3.08-8.85,2.73-15.21-.42-7.56-3.56-12.71-7.1-10.85S25.8,40.85,26.71,45a31.75,31.75,0,0,1,.42,9.5s-1.9-7.27-5.45-9.38c-2.84-1.7-4.83-.78-5.21.08s-.07,2.39,3.7,5S23.69,54,23.69,54a22.81,22.81,0,0,0-8.49-2.15,68.22,68.22,0,0,0-9,.34,57.43,57.43,0,0,0,4.06,7.95,22.87,22.87,0,0,0,6.11,6.27s-.8.74-5-1.19-5.66-1.45-6.21-.68-.36,2.94,2.52,4.55c3.61,2,10.86,0,10.86,0a31.94,31.94,0,0,1-8.44,4.38C6.06,74.82-.16,72.75,0,76.79s6.2,4.14,13,.72c5.69-2.87,11.81-10,11.81-10,1,3.45,5,3.32,5,3.32C17.57,75.09,14.57,83,15.35,87.57S21.1,93,21.1,93c-2.91,5.62,4.19,10,4.19,10-3.4-.46-6.58-5.1-11-5.22s-5.76,4.6-5.76,4.6c-3.28-1.77-4,1.13-4,2.1s.87,3.87,4.15,2.1c0,0,1.33,4.73,5.76,4.61s7.6-4.76,11-5.23c0,0-7.1,4.35-4.19,10,0,0-5,.83-5.75,5.38s2.22,12.48,14.43,16.71c0,0-4-.12-5,3.32,0,0-6.12-7.09-11.81-10C6.33,127.88.29,128,.13,132s6.06,2,10.14,3.27a31.61,31.61,0,0,1,8.44,4.38s-7.25-2-10.86,0c-2.88,1.61-3.08,3.79-2.53,4.56s2,1.25,6.22-.69,5-1.19,5-1.19a23,23,0,0,0-6.11,6.28,69.64,69.64,0,0,0-4.19,7.94,57,57,0,0,0,8.91.45,22.81,22.81,0,0,0,8.49-2.15s.25,1.07-3.52,3.73-4.09,4.18-3.7,5,2.37,1.78,5.21.09c3.55-2.12,5.45-9.39,5.45-9.39a31.75,31.75,0,0,1-.42,9.5c-.91,4.19-5.82,8.54-2.24,10.42s6.68-3.3,7.1-10.85c.35-6.37-2.73-15.21-2.73-15.21,3.51.81,5.39-2.69,5.39-2.69-2.45,12.69,2.92,19.25,7.25,20.85S49,164.1,49,164.1c3.42,5.33,10.73,1.36,10.73,1.36-2.11,2.71-7.71,3.14-10,6.91s1.11,7.29,1.11,7.29c-3.17,2-1,4-.32,4.4s3.92,1.31,4-2.41c0,0,4.75,1.21,6.86-2.68s-.32-9,1-12.15c0,0,.22,8.33,6.54,8.61,0,0-1.76,4.73,1.79,7.68s11.92,4.32,21.68-4.14c0,0-2.09,3.37.37,6,0,0-9.2,1.75-14.54,5.24-6.33,4.13-9.22,9.43-5.85,11.57s4.73-4.26,7.91-7.15a31.78,31.78,0,0,1,8-5.12s-5.34,5.29-5.4,9.43c0,3.3,1.74,4.56,2.68,4.46s2.1-1.13,2.52-5.72,1.46-4.92,1.46-4.92a22.84,22.84,0,0,0,2.38,8.43,69.53,69.53,0,0,0,4.78,7.6,56.25,56.25,0,0,0,4.85-7.49,23,23,0,0,0,2.39-8.43s1,.32,1.46,4.92,1.58,5.63,2.52,5.72,2.72-1.16,2.68-4.46c-.06-4.14-5.41-9.43-5.41-9.43a31.94,31.94,0,0,1,8,5.12c3.17,2.89,4.49,9.31,7.9,7.15s.49-7.44-5.84-11.58c-5.34-3.48-14.54-5.23-14.54-5.23,2.45-2.64.36-6,.36-6,9.77,8.46,18.14,7.09,21.69,4.14s1.79-7.68,1.79-7.68c6.32-.29,6.53-8.61,6.53-8.61,1.3,3.18-1.13,8.25,1,12.15s6.86,2.68,6.86,2.68c.11,3.72,3.19,2.64,3.89,2.19s2.86-2.45-.31-4.41c0,0,3.42-3.51,1.11-7.28s-7.92-4.21-10-6.92c0,0,7.31,4,10.72-1.35,0,0,3.21,3.88,7.54,2.29s9.7-8.17,7.26-20.86c0,0,1.88,3.5,5.39,2.69,0,0-3.09,8.85-2.73,15.21.41,7.56,3.56,12.71,7.09,10.85s-1.32-6.22-2.23-10.41a31.56,31.56,0,0,1-.43-9.5s1.91,7.27,5.46,9.38c2.84,1.7,4.83.78,5.21-.08s.07-2.39-3.7-5.05-3.52-3.72-3.52-3.72a22.8,22.8,0,0,0,8.48,2.15,68.31,68.31,0,0,0,9-.34,56.87,56.87,0,0,0-4.07-7.95,22.75,22.75,0,0,0-6.1-6.27s.79-.74,5,1.19,5.67,1.45,6.22.68.36-2.94-2.53-4.55c-3.6-2-10.86,0-10.86,0a31.94,31.94,0,0,1,8.44-4.38C187.23,134,193.45,136.05,193.28,132ZM178,101c2.63.22,3,1.89,3.09,3.37s-.42,3.22-3,3.37c-1.92.11-5.65-3.37-5.65-3.37S176.05,100.87,178,101Zm-3.56-44a20.82,20.82,0,0,1,7-1.58,22.74,22.74,0,0,1-5,5.26,10.6,10.6,0,0,1-6.87,1.59S171.08,58.54,174.4,57.05Zm-40-24.76c1.56-2.13,3.05-1.45,4-1s3.08,1.83,1.87,4.23c-.86,1.71-5.79,2.88-5.79,2.88S133.25,33.84,134.38,32.29ZM58.61,38.61s-4.74-1.2-5.54-3a3.32,3.32,0,0,1,1.6-4.46,3,3,0,0,1,4.17,1C59.87,33.8,58.61,38.61,58.61,38.61ZM16.76,60.73a20.74,20.74,0,0,1-4.85-5.24,22.69,22.69,0,0,1,7,1.68,10.56,10.56,0,0,1,4.8,5.15S19.71,62.86,16.76,60.73Zm-1.43,47a3.22,3.22,0,0,1-3-3.37A3.11,3.11,0,0,1,15.2,101c1.89-.32,5.12,3.37,5.12,3.37S17.22,108.09,15.33,107.77Zm3.56,44a20.82,20.82,0,0,1-7,1.58,22.74,22.74,0,0,1,5-5.26,10.57,10.57,0,0,1,6.86-1.59S22.2,150.26,18.89,151.75Zm40,24.76a3.68,3.68,0,0,1-4.73.71c-.85-.4-2.09-1.5-1.17-4,.67-1.8,5.74-3.07,5.74-3.07S60.13,175,58.91,176.51Zm75.76-6.41s4.88,1.24,5.55,3a3.1,3.1,0,0,1-1.17,4,3.39,3.39,0,0,1-4.6-.49C133.23,175.14,134.67,170.1,134.67,170.1Zm27.4-91.18c1.51-1.82,4.89-1.49,7.55.72s3.58,5.49,2.07,7.3-4.89,1.49-7.55-.73S160.55,80.73,162.07,78.92ZM149.28,48.13c2.33-.4,4.7,2,5.29,5.45s-.82,6.5-3.15,6.9-4.69-2-5.28-5.45S147,48.53,149.28,48.13Zm-13.14-2c5.92-1.29,5.65,4.72,1.54,5.59a23.09,23.09,0,0,1-8.23,0C129.44,51.19,131.63,47.09,136.14,46.11Zm1.68,19.37a40.64,40.64,0,0,0-5.21,3.63c-.56-.43-3.63-2-3.63-2l4.88-5.66a11,11,0,0,1,2.34,1.82A7.72,7.72,0,0,1,137.82,65.48Zm-9.24-6.37a9.69,9.69,0,0,1,2.82.89l-4.82,6.39a8.51,8.51,0,0,0-6.35,1.07l5.25-8.38A6.1,6.1,0,0,1,128.58,59.11Zm-1.27-18c1.4,4.39-1,8.34-1.54,8.61a23.4,23.4,0,0,1-4.08-7.15C120.39,38.62,125.46,35.39,127.31,41.16ZM121.4,56.87l-4.63,8.74a8.49,8.49,0,0,0-2.24-6l3.12-7.37a9.87,9.87,0,0,1,2.18,2A6,6,0,0,1,121.4,56.87ZM120.47,94c1.1,2.47-1.33,4.55-1.33,4.55s.82-2.57.18-4.07a3.47,3.47,0,0,0-2.27-1.86,3.64,3.64,0,0,0-.43-3c-1-1.31-3.61-1.88-3.61-1.88s3-1.07,4.61,1.12a3.89,3.89,0,0,1,.78,3A3.8,3.8,0,0,1,120.47,94Zm-5.27-.38c2.35,4.64-11.91,6.93-11.91,6.93S112.35,89.27,115.2,93.63ZM117,116.19a3.69,3.69,0,0,0,2.41-1.88c.64-1.5-.19-4.07-.19-4.07s2.44,2.08,1.34,4.55a3.89,3.89,0,0,1-2.21,2.18,3.8,3.8,0,0,1-.83,2.87C116,122,113,121,113,121s2.64-.58,3.61-1.88A3.46,3.46,0,0,0,117,116.19Zm-1.79-1.11c-2.85,4.36-12-6.84-12-6.84S117.6,110.44,115.25,115.08ZM102.46,91.94s5.49-11.16,1.36-14.87a5,5,0,0,0-3.09-1.55l-.25-.32V68.63a7.15,7.15,0,0,1,5.26-.18c5,2,4.38,9.57,4.38,9.57S101.51,94.26,102.46,91.94Zm.37-9.94S101,80,99.4,79.81a3.47,3.47,0,0,0-2.75,1,3.63,3.63,0,0,0-2.83-1.14c-1.62.2-3.43,2.19-3.43,2.19s.59-3.15,3.27-3.43a3.92,3.92,0,0,1,3,.82,3.83,3.83,0,0,1,2.91-.71C102.24,78.85,102.83,82,102.83,82Zm-6.19,26.38a4,4,0,1,1,4-4A4,4,0,0,1,96.64,108.38Zm0,17.47c-5.19-.28,0-13.78,0-13.78S101.89,125.57,96.69,125.85ZM96.59,83c5.2.28,0,13.78,0,13.78S91.4,83.23,96.59,83Zm-4-7.72-.14.18A5,5,0,0,0,89.4,77c-4.13,3.71,1.36,14.87,1.36,14.87.95,2.32-7.66-13.91-7.66-13.91s-.63-7.54,4.38-9.58a7,7,0,0,1,5.15.19ZM72.82,114.79c-1.1-2.47,1.33-4.55,1.33-4.55s-.82,2.57-.18,4.07a3.47,3.47,0,0,0,2.27,1.86,3.67,3.67,0,0,0,.42,3c1,1.31,3.62,1.88,3.62,1.88s-3,1.07-4.61-1.12a3.89,3.89,0,0,1-.78-3A3.8,3.8,0,0,1,72.82,114.79Zm5.27.38C75.74,110.53,90,108.24,90,108.24S80.94,119.53,78.09,115.17ZM76.24,92.61a3.68,3.68,0,0,0-2.4,1.88c-.64,1.5.18,4.07.18,4.07S71.59,96.48,72.69,94a3.89,3.89,0,0,1,2.2-2.18A3.84,3.84,0,0,1,75.73,89c1.59-2.18,4.61-1.12,4.61-1.12s-2.64.58-3.62,1.88A3.5,3.5,0,0,0,76.24,92.61ZM78,93.72c2.85-4.36,12,6.84,12,6.84S75.69,98.36,78,93.72Zm10.72-.59s-6.92-10.33-12.2-8.61a5,5,0,0,0-2.88,1.9l-.4.06-5.7-3.29a7.17,7.17,0,0,1,2.48-4.64c4.27-3.32,10.48,1,10.48,1S90.3,95.11,88.76,93.13Zm-19.39.15.09.22a5,5,0,0,0-.2,3.45c1.15,5.43,13.56,6.26,13.56,6.26,2.48.34-15.88-.32-15.88-.32s-6.84-3.23-6.1-8.58a6.94,6.94,0,0,1,2.74-4.37Zm-2.3,12.64s18.36-.67,15.88-.33c0,0-12.41.83-13.57,6.26a5,5,0,0,0,.21,3.45l-.21.52L63.83,119A7.18,7.18,0,0,1,61,114.5C60.23,109.14,67.07,105.92,67.07,105.92Zm6.47,16.56h.08a4.93,4.93,0,0,0,2.88,1.91c5.28,1.71,12.2-8.62,12.2-8.62,1.54-2-8.22,13.59-8.22,13.59s-6.21,4.31-10.48,1a6.9,6.9,0,0,1-2.4-4.45Zm9.63,8.3s8.6-16.24,7.66-13.92c0,0-5.49,11.16-1.36,14.87a5,5,0,0,0,3.09,1.55l.45.57v6.25a7.31,7.31,0,0,1-5.46.25C82.54,138.31,83.17,130.78,83.17,130.78Zm7.29-4s1.81,2,3.43,2.19a3.47,3.47,0,0,0,2.75-1,3.63,3.63,0,0,0,2.83,1.14c1.61-.2,3.43-2.19,3.43-2.19s-.59,3.15-3.27,3.43a3.9,3.9,0,0,1-3-.82,3.86,3.86,0,0,1-2.91.71C91,130,90.46,126.8,90.46,126.8Zm10.39,6.59a5.16,5.16,0,0,0,3-1.55c4.12-3.71-1.36-14.87-1.36-14.87-1-2.32,7.66,13.91,7.66,13.91s.62,7.54-4.39,9.58a6.85,6.85,0,0,1-5-.12Zm3.68-17.72s6.92,10.33,12.2,8.61a5,5,0,0,0,2.88-1.9l.72-.11,5.41,3.13a7.26,7.26,0,0,1-2.51,4.85c-4.27,3.32-10.48-1-10.48-1S103,113.69,104.53,115.67Zm19.32-.42a5.16,5.16,0,0,0,.18-3.4c-1.15-5.43-13.56-6.26-13.56-6.26-2.48-.34,15.88.32,15.88.32s6.84,3.23,6.1,8.58a6.87,6.87,0,0,1-2.57,4.24Zm2.37-12.37s-18.36.67-15.88.33c0,0,12.41-.83,13.56-6.26a4.93,4.93,0,0,0-.2-3.45l.21-.53,5.55-3.2a7.18,7.18,0,0,1,2.86,4.53C133.06,99.66,126.22,102.88,126.22,102.88Zm-6.48-16.56h-.07a4.93,4.93,0,0,0-2.88-1.91c-5.28-1.71-12.2,8.62-12.2,8.62-1.54,2,8.22-13.59,8.22-13.59s6.21-4.31,10.48-1a6.84,6.84,0,0,1,2.39,4.45Zm-10-36.93a7.77,7.77,0,0,1,2.73.3,11,11,0,0,1,2.74,1.11l-2.46,7.06s-2.89-1.88-3.54-2.14A40.56,40.56,0,0,0,109.69,49.39Zm2-20.7c3.25-1.19,6.55-.37,7.36,1.85s-1.16,5-4.4,6.18-6.55.36-7.36-1.85S108.45,29.89,111.69,28.69ZM94.52,13.39a20.93,20.93,0,0,1,2.11-6.83A22.66,22.66,0,0,1,98.7,13.5a10.56,10.56,0,0,1-2.06,6.73S94.15,17,94.52,13.39ZM88.64,49c.89-4.75,6-9.64,8-12.42,2,2.78,7,7.78,7.94,12.53S102,59,102,59a11.58,11.58,0,0,1,7.44,1.63c4.11,2.32,5.67,7.19,5.8,8l-.83,2s-3.07-7.67-7.2-9.24a8.1,8.1,0,0,0-9.33,2.17,7,7,0,0,1,1.13-4.07c1.35-2.23,2.68-4.8,2.33-7-.72-4.67-4.73-8.41-4.74-8.41s-4.1,3.78-4.81,8.3c-.34,2.2,1,4.77,2.34,7a7,7,0,0,1,1.13,4.07A8.1,8.1,0,0,0,86,61.31c-4.13,1.57-7.21,9.24-7.21,9.24l-.82-2c.13-.85,1.69-5.72,5.8-8a11.55,11.55,0,0,1,7.43-1.63S87.75,53.75,88.64,49Zm-4.58,6.61c-.65.26-3.54,2.14-3.54,2.14l-2.46-7.06a11,11,0,0,1,2.74-1.11,7.77,7.77,0,0,1,2.73-.3A40.56,40.56,0,0,0,84.06,55.61ZM74.24,30.54c.81-2.22,4.11-3,7.35-1.85s5.22,4,4.41,6.18-4.11,3-7.36,1.85S73.42,32.76,74.24,30.54ZM73.39,54.1a9.59,9.59,0,0,1,2.18-2l3.12,7.37a8.5,8.5,0,0,0-2.24,6l-4.64-8.74A6.06,6.06,0,0,1,73.39,54.1ZM65.91,41.05c1.85-5.77,6.92-2.53,5.62,1.46a23.32,23.32,0,0,1-4.09,7.15C67,49.39,64.51,45.45,65.91,41.05ZM64.77,59.23a6,6,0,0,1,3.09,0l5.26,8.38a8.56,8.56,0,0,0-6.35-1.07L62,60.11A9.4,9.4,0,0,1,64.77,59.23Zm-.41,8s-3.07,1.57-3.62,2a41,41,0,0,0-5.21-3.62,7.83,7.83,0,0,1,1.62-2.22,10.84,10.84,0,0,1,2.33-1.81Zm-7.16-21c4.52,1,6.71,5.09,6.69,5.64a23.34,23.34,0,0,1-8.23,0C51.55,51,51.29,44.94,57.2,46.22ZM38.61,53.38c.59-3.41,3-5.85,5.28-5.45s3.73,3.49,3.14,6.9-3,5.85-5.28,5.45S38,56.79,38.61,53.38Zm14.12,16.5C57.29,71.49,60,77,60,77a11.54,11.54,0,0,1,5.13-5.62c4.06-2.4,9.06-1.32,9.86-1l1.33,1.72s-8.18-1.16-11.6,1.62a8.09,8.09,0,0,0-2.79,9.17,7,7,0,0,1-3-3c-1.26-2.29-2.81-4.72-4.9-5.53-4.4-1.7-9.65-.1-9.65-.1s1.22,5.45,4.78,8.32C51,84,53.84,84.1,56.44,84.05a7,7,0,0,1,4.09,1,8.11,8.11,0,0,0-6.54,7c-.7,4.36,4.4,10.86,4.4,10.86l-2.16-.29c-.67-.54-4.1-4.32-4.06-9a11.61,11.61,0,0,1,2.31-7.26s-6.15.41-9.82-2.74-5.36-10-6.75-13.14C41.33,70.12,48.17,68.28,52.73,69.88Zm-4.5,48a40.92,40.92,0,0,0-5.75,2.7,8.08,8.08,0,0,1-1.11-2.52,11.19,11.19,0,0,1-.4-2.93l7.34-1.39S48.13,117.21,48.23,117.91Zm-7.29-5.6a9.64,9.64,0,0,1,.64-2.89,6.09,6.09,0,0,1,1.52-2.7l9.89-.36a8.54,8.54,0,0,0-4.11,5ZM48.18,95l-7.34-1.4a11.19,11.19,0,0,1,.4-2.93,7.94,7.94,0,0,1,1.11-2.51,40.92,40.92,0,0,0,5.75,2.7C48,91.6,48.18,95,48.18,95Zm.57,2.44a8.55,8.55,0,0,0,4.11,5L43,102.09a6.07,6.07,0,0,1-1.52-2.71,9.45,9.45,0,0,1-.65-2.88ZM21.48,86.74c-1.51-1.81-.58-5.08,2.08-7.3s6-2.54,7.55-.72S31.69,83.8,29,86,23,88.56,21.48,86.74Zm9,8.47a23,23,0,0,1,4.14,7.11c-.47.28-5.11.43-8.22-3C22.34,94.86,27.68,92.08,30.49,95.21Zm.5,34.53c-1.51,1.82-4.89,1.49-7.55-.72s-3.59-5.49-2.07-7.3,4.89-1.49,7.55.72S32.51,127.93,31,129.74Zm-.37-16.14c-2.81,3.12-8.15.35-4.08-4.13,3.11-3.42,7.75-3.27,8.22-3A23.17,23.17,0,0,1,30.62,113.6Zm13.15,46.93c-2.32.4-4.69-2-5.28-5.45s.82-6.5,3.15-6.9,4.69,2,5.28,5.45S46.1,160.13,43.77,160.53Zm-5.86-22.22c1.39-3.14,3.22-10,6.88-13.14s9.82-2.74,9.82-2.74a11.56,11.56,0,0,1-2.31-7.25,13.37,13.37,0,0,1,4.06-9l2.16-.29s-5.1,6.49-4.4,10.85a8.1,8.1,0,0,0,6.54,7,7,7,0,0,1-4.09,1.06c-2.6-.06-5.49.07-7.23,1.47-3.67,3-4.92,8.31-4.91,8.32s5.33,1.66,9.59,0c2.09-.8,3.64-3.24,4.9-5.52a7,7,0,0,1,3-3,8.08,8.08,0,0,0,2.79,9.17c3.42,2.79,11.6,1.62,11.6,1.62l-1.33,1.72c-.8.31-5.8,1.39-9.86-1A11.54,11.54,0,0,1,60,131.9s-2.72,5.53-7.28,7.13S41.33,138.68,37.91,138.31Zm26.39,3.38-4.88,5.66a11.12,11.12,0,0,1-2.33-1.82,7.72,7.72,0,0,1-1.62-2.21,40.64,40.64,0,0,0,5.21-3.63C61.23,140.12,64.3,141.69,64.3,141.69Zm-7.16,21C51.23,164,51.49,158,55.6,157.1a23.07,23.07,0,0,1,8.23,0C63.85,157.61,61.66,161.71,57.14,162.69Zm7.57-13a9.53,9.53,0,0,1-2.82-.89l4.82-6.39a8.51,8.51,0,0,0,6.35-1.07l-5.26,8.38A6.05,6.05,0,0,1,64.71,149.69ZM66,167.64c-1.4-4.39,1-8.34,1.53-8.61a23.32,23.32,0,0,1,4.09,7.15C72.9,170.18,67.82,173.41,66,167.64Zm5.9-15.71,4.64-8.74a8.49,8.49,0,0,0,2.24,6l-3.12,7.37a9.59,9.59,0,0,1-2.18-2A6.06,6.06,0,0,1,71.88,151.93Zm11.72,7.48a7.77,7.77,0,0,1-2.73-.3A10.82,10.82,0,0,1,78.13,158l2.46-7.06s2.89,1.88,3.54,2.14A40.56,40.56,0,0,0,83.6,159.41ZM81.36,180c-3.24,1.19-6.54.36-7.35-1.85s1.15-5,4.4-6.18,6.54-.37,7.36,1.85S84.61,178.77,81.36,180Zm17.41,15.44a20.82,20.82,0,0,1-2.12,6.83,22.8,22.8,0,0,1-2.06-6.94,10.52,10.52,0,0,1,2-6.73S99.14,191.8,98.77,195.41Zm5.88-35.61c-.89,4.75-6,9.64-8,12.42-2-2.78-7-7.78-7.93-12.53s2.53-9.87,2.53-9.87a11.55,11.55,0,0,1-7.43-1.63c-4.11-2.32-5.67-7.19-5.8-8l.82-2s3.08,7.67,7.21,9.24a8.1,8.1,0,0,0,9.33-2.17,7,7,0,0,1-1.13,4.07c-1.35,2.23-2.68,4.8-2.34,7,.73,4.67,4.74,8.41,4.74,8.41s4.11-3.78,4.81-8.3c.35-2.2-1-4.77-2.33-7A7,7,0,0,1,98,145.32a8.1,8.1,0,0,0,9.33,2.17c4.13-1.57,7.2-9.24,7.2-9.24l.83,2c-.13.85-1.69,5.72-5.8,8a11.58,11.58,0,0,1-7.44,1.63S105.54,155.05,104.65,159.8Zm4.58-6.61c.65-.26,3.54-2.14,3.54-2.14l2.46,7.06a11,11,0,0,1-2.74,1.11,7.77,7.77,0,0,1-2.73.3A40.56,40.56,0,0,0,109.23,153.19Zm9.59,24.93c-.81,2.21-4.11,3-7.35,1.85s-5.22-4-4.41-6.18,4.11-3,7.36-1.85S119.64,175.9,118.82,178.12Zm1.07-23.42a9.74,9.74,0,0,1-2.17,2l-3.12-7.37a8.5,8.5,0,0,0,2.24-6l4.63,8.74A6.06,6.06,0,0,1,119.89,154.7Zm7.48,13.05c-1.84,5.77-6.91,2.53-5.61-1.46a23.18,23.18,0,0,1,4.08-7.15C126.32,159.41,128.78,163.35,127.37,167.75Zm1.15-18.18a6.05,6.05,0,0,1-3.1,0l-5.25-8.38a8.56,8.56,0,0,0,6.35,1.07l4.82,6.39A9.56,9.56,0,0,1,128.52,149.57Zm.4-8s3.07-1.57,3.63-2a41,41,0,0,0,5.21,3.62,7.83,7.83,0,0,1-1.62,2.22,10.75,10.75,0,0,1-2.34,1.81Zm7.16,21c-4.51-1-6.7-5.09-6.69-5.64a23.36,23.36,0,0,1,8.23,0C141.73,157.85,142,163.86,136.08,162.58Zm18.37-7.3c-.59,3.41-2.95,5.85-5.28,5.45s-3.74-3.5-3.15-6.91,3-5.84,5.29-5.44S155,151.87,154.45,155.28Zm-13.89-16.36c-4.56-1.61-7.28-7.13-7.28-7.13a11.6,11.6,0,0,1-5.13,5.62c-4.07,2.4-9.06,1.32-9.86,1L117,136.7s8.18,1.16,11.6-1.62a8.11,8.11,0,0,0,2.79-9.17,7,7,0,0,1,3,3c1.25,2.29,2.81,4.72,4.89,5.53,4.41,1.7,9.66.1,9.66.1s-1.22-5.45-4.79-8.32c-1.73-1.4-4.62-1.53-7.23-1.48a7.05,7.05,0,0,1-4.09-1,8.11,8.11,0,0,0,6.55-7c.7-4.36-4.4-10.86-4.4-10.86l2.16.29c.67.54,4.1,4.32,4.05,9a11.57,11.57,0,0,1-2.3,7.26s6.15-.41,9.81,2.74,5.37,10,6.76,13.14C152,138.68,145.12,140.52,140.56,138.92Zm4.5-48a40.92,40.92,0,0,0,5.75-2.7,8.08,8.08,0,0,1,1.11,2.52,11.19,11.19,0,0,1,.4,2.93L145,95S145.16,91.59,145.06,90.89Zm7.29,5.6a9.53,9.53,0,0,1-.65,2.89,6,6,0,0,1-1.52,2.7l-9.88.36a8.51,8.51,0,0,0,4.1-5Zm-7.24,17.27,7.34,1.4a11.19,11.19,0,0,1-.4,2.93,7.94,7.94,0,0,1-1.11,2.51,40.92,40.92,0,0,0-5.75-2.7C145.29,117.2,145.11,113.76,145.11,113.76Zm-.58-2.44a8.51,8.51,0,0,0-4.1-5l9.88.35a6.07,6.07,0,0,1,1.52,2.71,9.89,9.89,0,0,1,.65,2.88Zm4-27.69c-3.66,3.14-9.81,2.74-9.81,2.74a11.52,11.52,0,0,1,2.3,7.25,13.32,13.32,0,0,1-4,9l-2.16.29s5.1-6.49,4.4-10.85a8.1,8.1,0,0,0-6.54-7A7,7,0,0,1,136.71,84c2.61.06,5.5-.07,7.23-1.47,3.68-3,4.92-8.31,4.92-8.32s-5.33-1.66-9.6,0c-2.08.8-3.64,3.24-4.89,5.52a7,7,0,0,1-3,3,8.1,8.1,0,0,0-2.79-9.17C125.2,70.82,117,72,117,72l1.33-1.72c.8-.31,5.79-1.39,9.86,1a11.6,11.6,0,0,1,5.13,5.62s2.72-5.53,7.28-7.13,11.34.35,14.76.72C154,73.63,152.16,80.48,148.49,83.63ZM162.67,95.2c2.81-3.12,8.15-.35,4.08,4.13-3.11,3.42-7.76,3.27-8.23,3A23.31,23.31,0,0,1,162.67,95.2Zm-4,11.28c.47-.28,5.12-.43,8.23,3,4.07,4.48-1.27,7.26-4.08,4.13A23.19,23.19,0,0,1,158.65,106.48Zm3.3,23.46c-1.51-1.81-.58-5.08,2.08-7.3s6-2.54,7.55-.72.58,5.08-2.08,7.29S163.46,131.75,162,129.94Zm14.58,18.13a20.74,20.74,0,0,1,4.85,5.24,22.69,22.69,0,0,1-7-1.68,10.55,10.55,0,0,1-4.81-5.15S173.58,145.94,176.53,148.07Z"/></g></g></svg>