<svg xmlns="http://www.w3.org/2000/svg" viewBox="0 0 180.93 208.8"><defs><style>.cls-1{fill:#231f20;}</style></defs><g id="Layer_2" data-name="Layer 2"><g id="Layer_1-2" data-name="Layer 1"><path class="cls-1" d="M136.21,135.23l15.58,24.89,29.14-3.61-11.56-26.85-29.05-1.18,18.75-8.42,14.12,8.57,2.34-3.85-11.47-7,6.53-2.93-2.77-6.17-35.5,15.94-9.9-5.71,23.85-5.06-1.41-6.62-31.2,6.62-3.7-2.14,10.6-7.48-10.75-7.14,3.85-2.22,31.2,6.62,1.41-6.62-23.85-5.06,9.9-5.71,35.5,15.94,2.77-6.17L164.06,91l11.47-7-2.34-3.85-14.12,8.57-19-8.55,29.34-1,11.45-27-29-3.41L136.25,73.26l2.08-20.44,14.48-8-2.17-3.95-11.75,6.45.72-7.12-6.72-.69-3.95,38.72L119,84l7.54-23.18-6.43-2.1-9.87,30.33-3.85,2.23-.8-12.88L93.84,83.84V79.56l21.34-23.71-5-4.52L93.84,69.45V58L125.4,35.24l-4-5.48L115.64,34l-.29-13.4-4.51.09.36,16.51L94.29,49.37l13.76-25.94L90.36,0,72.89,23.44l13.5,25.74-16.67-12,.37-16.51-4.51-.09L65.29,34l-5.81-4.19-4,5.48L87.08,58V69.45L70.78,51.33l-5,4.52L87.08,79.56v4.28L75.3,78.4l-.8,12.88-3.86-2.23L60.78,58.72l-6.43,2.1L61.89,84,52,78.28,48,39.56l-6.72.69L42,47.37,30.29,40.92l-2.17,3.95,14.48,8,2.11,20.75L29.14,48.68,0,52.29,11.56,79.14l29.05,1.18L21.86,88.74,7.74,80.17,5.4,84l11.46,7-6.53,2.93,2.77,6.17L48.61,84.14l9.9,5.71L34.66,94.91l1.4,6.62,31.2-6.62L71,97.05l-10.6,7.48,10.75,7.14-3.86,2.22-31.2-6.62-1.4,6.62L58.51,119l-9.9,5.71L13.1,108.72l-2.77,6.17,6.53,2.93-11.46,7,2.34,3.85,14.12-8.57,19,8.55-29.34,1L.1,156.69l29,3.41,15.55-24.56L42.6,156l-14.48,8,2.17,3.95L42,161.43l-.72,7.12,6.72.69,4-38.72,9.9-5.72L54.35,148l6.43,2.1,9.86-30.33,3.71-2.14,1.18,12.92,11.55-5.74v4.45L65.75,153l5,4.52,16.3-18.12v11.43L55.52,173.56l4,5.48,5.81-4.19.29,13.4,4.51-.09-.37-16.51,16.92-12.22L72.87,185.37,90.56,208.8,108,185.36l-13.5-25.74,16.66,12-.36,16.51,4.51.09.29-13.4,5.81,4.19,4-5.48L93.84,150.78V139.35l16.31,18.12,5-4.52L93.84,129.24V125l11.79,5.44.8-12.88,3.85,2.23,9.87,30.33,6.43-2.1L119,124.8l9.9,5.72,3.95,38.72,6.72-.69-.72-7.12,11.75,6.45,2.17-3.95-14.48-8Zm24.59,4.26-8.16-1,.05-.08-4.95-2.86,17.1.69,6.31,14.67-15.92,2-9.16-14.65,5,2.91,0-.07,4.88,6.49,9-.22Zm-5.57-83.58,15.86,1.87-6.26,14.77-17.27.61,5.05-2.91-.05-.07,8.06-1,4.3-7.88L156,61l-5,6.56,0-.08-4.95,2.86ZM20.13,69.31l8.15,1,0,.07,4.95,2.86-17.1-.69L9.77,57.89l15.92-2,9.17,14.65-5.05-2.91,0,.07L24.9,61.24l-9,.22Zm5.57,83.58L9.84,151l6.26-14.77,17.26-.61-5,2.91,0,.07-8.06,1L16,147.49l8.91.28,4.94-6.56,0,.08,5-2.86ZM80.85,24.07l9.55-12.8,9.66,12.8L92,39.33V33.51h-.09L95.05,26l-4.67-7.67-4.7,7.57,3.21,7.57H88.8v5.71ZM79,84.57l8.1,3.74V92l-4.82-2-1,5.17-2.85-1.65Zm-1,23.16L75,109.4l-7.49-5,7.28-5.15L78,101.09l-4.06,3.16ZM79,124.26l-.81-8.88,3.14-1.82.69,5,5-1.75v3.41Zm21,60.47-9.54,12.8-9.66-12.8L89,169.47v5.82h.08l-3.18,7.47,4.68,7.67,4.69-7.57L92,175.29h.08v-5.71ZM90.46,109.9a5.5,5.5,0,1,1,5.5-5.5A5.5,5.5,0,0,1,90.46,109.9ZM102,124.23l-8.11-3.74V116.8l4.71,1.92,1-5.17,3,1.71ZM99.47,95.3l-.71-5.16-4.92,1.71V88.31L102,84.57l.55,9Zm6.62,14.22-3.24-1.87,4.06-3.16-4-3.4,2.93-1.69,7.49,5Z"/></g></g></svg>