<svg xmlns="http://www.w3.org/2000/svg" viewBox="0 0 208.8 195.15"><defs><style>.cls-1{fill:#231f20;}</style></defs><g id="Layer_2" data-name="Layer 2"><g id="Layer_1-2" data-name="Layer 1"><path class="cls-1" d="M208.8,94.11H185.3l14.39-7.72-1.42-2.64-1.42-2.65h0l-.11.06-24.24,13H157.35l22.76-16.19L176.63,73,147,94.11h-8.7l5.6-9.15,10.87-.44-.18-4.61-7.8.31,3.47-5.67a8.2,8.2,0,0,0,13.11-7.71l12.35-2.27,13.34-15.48-20.53,3L160.81,62a8.2,8.2,0,0,0-13.63,7.37l-6.55.17,4.17-6.6-3.9-2.46-5.82,9.2-10.73.27,4.35-7.54,33.06-15.11-2.49-5.45-25.4,11.61,7.57-13.12,23.44-14.58h0l-1.58-2.55-1.58-2.55-13.89,8.6L159.6,8.89l-6-3.46L141.85,25.79l.5-16.24V9.47h0l-3-.09-3-.1-.91,27.6L127.88,50l-2.65-27.79-6,.56,3.45,36.19-4.2,7.27-5.2-9.31,5-9.49-4.09-2.14-3.58,6.83-3.3-5.89a8.2,8.2,0,0,0,0-15.22l4.15-11.69L104.74,0,97.09,19.3l4.64,11.49a8.2,8.2,0,0,0-.3,15.5l-3.2,5.89L94.6,45.27l-4.09,2.14,5.06,9.64-5.13,9.43-4.35-7.54,3.45-36.19-6-.56L80.92,50,73.35,36.87l-.91-27.6-3,.1-3,.09h0v.11L67,25.79,55.2,5.43l-6,3.46L61,29.25,47.08,20.66h0L45.49,23.2l-1.58,2.55L67.36,40.33l7.57,13.12L49.53,41.84,47,47.29,80.1,62.4l4.35,7.54-10.73-.27-5.82-9.2L64,62.93l4.17,6.6-6.82-.17a8.2,8.2,0,0,0-13.23-7.71l-8-9.35L20.07,48.49,33,64.76,45.2,66.49A8.2,8.2,0,0,0,58.44,74.4l3.47,5.82-7.71-.31L54,84.52l10.7.43,5.46,9.16H61.79L32.17,73l-3.48,4.88L51.45,94.11H36.3L12,81.11h0l-1.42,2.65L9.11,86.39,23.5,94.11H0V101H23.5L9.11,108.76l1.42,2.64L12,114.05h0L36.3,101H51.45L28.69,117.23l3.48,4.88L61.79,101h8.7l-5.6,9.15L54,110.63l.18,4.61,7.8-.31-3.5,5.71a8.2,8.2,0,0,0-13.32,7.71l-12.11,2.23L19.73,146.06l20.53-3L48,133.2a8.19,8.19,0,0,0,13.41-7.41l6.8-.17L64,132.22l3.9,2.46,5.82-9.2,10.73-.27-4.35,7.54L47,147.86l2.49,5.45,25.4-11.61-7.57,13.12L44,169.34l-.1.06h0L45.49,172l1.58,2.55L61,165.9,49.2,186.26l6,3.46L67,169.36l-.5,16.33,3,.09,3,.1h0l.91-27.59,7.57-13.12L83.57,173l6-.56-3.45-36.19,4.2-7.27,5.2,9.31-5,9.49,4.09,2.14,3.58-6.83,3.18,5.68a8.19,8.19,0,0,0,.13,15.38l-4.17,11.74,6.74,19.3,7.65-19.3L107,164.13a8.2,8.2,0,0,0,.42-15.32l3.19-5.81,3.61,6.88,4.09-2.14-5-9.59,5.16-9.38,4.3,7.44-3.45,36.19,6,.56,2.65-27.8,7.57,13.12.91,27.6,3-.1,3-.09h0l-.5-16.31,11.75,20.36,6-3.46L147.84,165.9l13.79,8.54.09.06h0l1.58-2.55,1.58-2.55-23.45-14.58-7.57-13.12,25.4,11.61,2.49-5.45L128.7,132.75l-4.32-7.49,10.72.25,5.8,9.17,3.9-2.46-4.16-6.58,6.51.15a8.2,8.2,0,0,0,13.34,7.48l8.16,9.58,20.08,3.81-12.89-16.27-12.54-1.77a8.21,8.21,0,0,0-13.1-8.13l-3.31-5.56,7.71.31.18-4.61-10.7-.43L138.62,101H147l29.62,21.07,3.48-4.88L157.35,101H172.5l24.35,13,1.42-2.65,1.41-2.64h0l-.07,0L185.3,101h23.5ZM170.78,56l7.87-1.16-5.11,5.93L166,62.15Zm-135.6,4.9-4.94-6.23,7.7,1.46,5,5.87ZM38,139.17l-7.87,1.16,5.11-5.93,7.58-1.4Zm135.6-4.9,4.94,6.23-7.7-1.46-5-5.87Zm-43.07-24.54-2.83-5.09-5.7.17L115.48,101h15.09l7.9,13.27ZM86.15,105l-4.79,0-2.93,4.44-7.7,4.45L78.61,101H93Zm44-10.9h-15l6.89-4,5.35,0,3.28-5,7.66-4.43ZM120.29,77l15.1-.39L127.73,81l-5.55-.1L119.6,85.7l-6.52,3.77Zm-5.8-3.79L106.8,86.49V78.54l2.66-4.65-2.66-5.32V59.45Zm-10-61.29,2.58,7.4-2.58,7.26-2.93-7.26Zm-2.78,48.35v8.84l-2.86,4.77,2.86,4.62V86L94.5,73.51ZM88.51,77l7.35,12.74-6.88-4-2.56-4.38L80.8,81l-7.68-4.43ZM70.33,80.84l7.92,4.58,2.83,5.09,5.7-.17,6.54,3.77H78.23Zm18.18,37.34-15.68.4,7.7-4.45,6.09.11L89.45,109,96,105.2Zm5.8,3.79,7.41-12.83v8l-2.38,4.16,2.38,4.76v9.18Zm10,61.29-2.58-7.4,2.58-7.26,2.93,7.26Zm2.5-47.74v-9l3.14-5.23-3.14-5.07v-7.57l7.57,13.1Zm13.53-17.27-7.39-12.81,6.88,4,2.56,4.38,5.62.34,7.73,4.46Z"/></g></g></svg>